<svg height='100px' width='100px'  xmlns="http://www.w3.org/2000/svg" viewBox="0 0 150 150" fill="none" x="0px" y="0px"><path fill-rule="evenodd" clip-rule="evenodd" d="M24.5 28.3198L66.2101 1.77708C73.6995 -2.98893 83.5 2.39094 83.5 11.2683V89.6057C83.5 98.4831 73.6995 103.863 66.2101 99.0969L24.5 72.5542V28.3198ZM70.2367 8.10452L32 32.4369V68.4371L70.2367 92.7695C72.7332 94.3582 76 92.5649 76 89.6057V11.2683C76 8.30914 72.7332 6.51585 70.2367 8.10452Z" transform="translate(15 26.25)" fill="black"></path><path fill-rule="evenodd" clip-rule="evenodd" d="M20 28.437V72.437H12C5.37254 72.437 0 67.0645 0 60.437V40.4371C0 33.8095 5.37254 28.437 12 28.437H20ZM12 36.4371C9.79088 36.4371 7.99999 38.2279 7.99999 40.4371V60.437C7.99999 62.6461 9.79088 64.4369 12 64.4369V36.4371Z" transform="translate(15 26.25)" fill="black"></path><path d="M95.75 46.2239C93.6789 46.2239 92 47.9027 92 49.9739C92 52.045 93.6789 53.7239 95.75 53.7239H116.25C118.321 53.7239 120 52.045 120 49.9739C120 47.9027 118.321 46.2239 116.25 46.2239H95.75Z" transform="translate(15 26.25)" fill="black"></path><path d="M93.9021 32.5168C92.7435 30.8002 93.1959 28.4693 94.9126 27.3109L101.958 22.5557C103.675 21.3971 106.006 21.8496 107.164 23.5662C108.323 25.283 107.87 27.6137 106.154 28.7723L99.1082 33.5273C97.3915 34.6859 95.0607 34.2337 93.9021 32.5168Z" transform="translate(15 26.25)" fill="black"></path><path d="M96.1749 74.0383C94.4582 72.8799 94.0058 70.549 95.1644 68.8324C96.323 67.1155 98.6538 66.6632 100.371 67.8218L107.416 72.5769C109.133 73.7355 109.585 76.0662 108.427 77.783C107.268 79.4996 104.937 79.9521 103.22 78.7935L96.1749 74.0383Z" transform="translate(15 26.25)" fill="black"></path></svg>