<svg height='100px' width='100px'  xmlns="http://www.w3.org/2000/svg" viewBox="0 0 150 150" fill="none" x="0px" y="0px"><path fill-rule="evenodd" clip-rule="evenodd" d="M68.521 1.77708L26.8108 28.3198V64.8679L22.3109 67.8031V28.4372H14.3109C7.68336 28.4372 2.31081 33.8098 2.31081 40.4373V60.4372C2.31081 67.0647 7.68336 72.4372 14.3109 72.4372H15.2061L1.70164 81.2458C-0.0329384 82.3771 -0.521944 84.7007 0.609533 86.4354C1.74101 88.1701 4.06439 88.659 5.79909 87.5277L103.167 24.0178C104.902 22.8862 105.391 20.5628 104.259 18.8281C103.128 17.0934 100.805 16.6045 99.0699 17.7359L85.8108 26.3844V11.2683C85.8108 2.39094 76.0103 -2.98893 68.521 1.77708ZM78.3108 31.2763V11.2683C78.3108 8.30914 75.044 6.51585 72.5476 8.10452L34.3108 32.4369V59.976L78.3108 31.2763ZM10.3108 40.4373C10.3108 38.2281 12.1017 36.4373 14.3109 36.4373V64.4371C12.1017 64.4371 10.3108 62.6464 10.3108 60.4372V40.4373Z" transform="translate(22.5 26.25)" fill="black"></path><path d="M68.521 99.0969L34.7441 77.6026L41.6427 73.1028L72.5476 92.7695C75.044 94.3582 78.3108 92.5649 78.3108 89.6057V49.1856L85.8108 44.2935V89.6057C85.8108 98.4831 76.0103 103.863 68.521 99.0969Z" transform="translate(22.5 26.25)" fill="black"></path></svg>